<svg width="24" height="24" viewBox="0 0 24 24" fill="none" xmlns="http://www.w3.org/2000/svg"><path d="M14.15 6.44a4.311 4.311 0 013.403 3.398M14.15 3a7.762 7.762 0 014.624 2.216A7.735 7.735 0 0121 9.83m-1.006 10.14a1.72 1.72 0 01-1.734 1.024 17.075 17.075 0 01-7.437-2.64 16.79 16.79 0 01-5.17-5.161 17 17 0 01-2.646-7.457 1.717 1.717 0 011.02-1.728c.219-.097.456-.147.695-.147h2.072c.598 0 1.17 0 1.654.416.317.272.524.65.583 1.063.109.826.311 1.637.603 2.417a1.717 1.717 0 01-.388 1.815l-1.094 1.092a13.775 13.775 0 005.17 5.16l1.094-1.091a1.724 1.724 0 011.819-.387 11.067 11.067 0 002.421.602c.419.059.801.269 1.074.59.393.463.413 1.514.408 2.514-.003.762.041 1.495-.144 1.918z" stroke="currentColor" stroke-linecap="round" stroke-linejoin="round"/></svg>