<svg width="28" height="28" viewBox="0 0 28 28" fill="none" xmlns="http://www.w3.org/2000/svg"><path d="M14 .667C6.667.667.667 6.667.667 14s6 13.333 13.333 13.333 13.333-6 13.333-13.333S21.333.667 14 .667z" fill="#9A2323"/><path d="M14 16.666c-.8 0-1.333-.533-1.333-1.333V6.4c0-.8.533-1.334 1.333-1.334.8 0 1.333.534 1.333 1.334v8.933c0 .667-.533 1.333-1.333 1.333zm0 6.267c-.8 0-1.333-.533-1.333-1.333v-1.334c0-.8.533-1.333 1.333-1.333.8 0 1.333.534 1.333 1.334V21.6c0 .8-.533 1.333-1.333 1.333z" fill="#fff"/></svg>