<svg width="102" height="67" viewBox="0 0 102 67" fill="none" xmlns="http://www.w3.org/2000/svg">
<path d="M31.5437 5.57987e-06L0 0V2.11858C3.20608 3.01898 5.94677 6.7309 6.91635 8.47431L35.8745 66.9338H38.3308L46.2167 39.9219C41.218 30.3221 31.0783 10.1692 29.9924 7.41503C28.9065 4.66088 30.6172 2.7365 31.5437 1.98617V5.57987e-06Z" fill="#DAC5B1"/>
<path d="M61.8593 5.57987e-06H52.2928V1.91997C54.4129 3.24408 55.0722 5.69368 55.1369 6.75297H56.6236C58.1232 4.10475 60.7389 2.42754 61.8593 1.91997V5.57987e-06Z" fill="#DAC5B1"/>
<path d="M102 0.132411H75.4335V2.11858C76.7693 3.222 79.4411 5.56126 79.4411 7.61364C79.4411 9.36227 79.5273 42.7688 79.5057 59.254C79.4626 60.4015 78.5878 63.213 75.4335 65.2787V67H102V65.2787C98.8456 63.213 97.9708 60.4015 97.9278 59.254C97.9062 42.7688 97.9924 9.36227 97.9924 7.61364C97.9924 5.56126 100.664 3.222 102 2.11858V0.132411Z" fill="#DAC5B1"/>
</svg>
