<svg width="348" height="228" viewBox="0 0 348 228" fill="none" xmlns="http://www.w3.org/2000/svg"><path d="M107.62 0H0v7.21c10.938 3.064 20.289 15.695 23.597 21.628l98.798 198.937h8.381l26.905-91.921c-17.055-32.668-51.649-101.248-55.354-110.62-3.705-9.373 2.132-15.922 5.293-18.475V0zm103.429 0h-32.638v6.534c7.233 4.506 9.483 12.841 9.703 16.446h5.072c5.117-9.012 14.041-14.72 17.863-16.446V0zM348 .45h-90.639v6.76c4.558 3.754 13.673 11.715 13.673 18.7 0 5.95.294 119.631.221 175.73-.147 3.905-3.132 13.473-13.894 20.502V228H348v-5.858c-10.762-7.029-13.747-16.597-13.894-20.502-.073-56.099.221-169.78.221-175.73 0-6.985 9.115-14.946 13.673-18.7V.45z" fill="#DAC5B1" fill-opacity=".05"/></svg>