<svg width="585" height="449" viewBox="0 0 585 449" fill="none" xmlns="http://www.w3.org/2000/svg"><path d="M211.529 0H0v14.198c21.5 6.034 39.878 30.91 46.38 42.593l194.19 391.765h16.472l52.882-181.019C276.403 203.204 208.408 68.149 201.125 49.692c-7.282-18.457 4.191-31.353 10.404-36.382V0zm203.292 0h-64.152v12.867c14.218 8.873 18.639 25.29 19.072 32.388h9.97c10.056-17.747 27.597-28.987 35.11-32.388V0zM684 .887H505.848v13.31c8.958 7.395 26.874 23.072 26.874 36.826 0 11.718.578 235.592.434 346.067-.289 7.69-6.155 26.532-27.308 40.374V449H684v-11.536c-21.153-13.842-27.019-32.684-27.308-40.374-.144-110.475.433-334.349.433-346.067 0-13.754 17.917-29.43 26.875-36.825V.888z" fill="#DAC5B1" fill-opacity=".03"/></svg>