<svg width="28" height="28" viewBox="0 0 28 28" fill="none" xmlns="http://www.w3.org/2000/svg">
<path d="M14 0.666504C6.66663 0.666504 0.666626 6.6665 0.666626 13.9998C0.666626 21.3332 6.66663 27.3332 14 27.3332C21.3333 27.3332 27.3333 21.3332 27.3333 13.9998C27.3333 6.6665 21.3333 0.666504 14 0.666504Z" fill="#9A2323"/>
<path d="M14 16.6665C13.2 16.6665 12.6666 16.1332 12.6666 15.3332V6.39984C12.6666 5.59984 13.2 5.0665 14 5.0665C14.8 5.0665 15.3333 5.59984 15.3333 6.39984V15.3332C15.3333 15.9998 14.8 16.6665 14 16.6665Z" fill="white"/>
<path d="M14 22.9332C13.2 22.9332 12.6666 22.3998 12.6666 21.5998V20.2665C12.6666 19.4665 13.2 18.9332 14 18.9332C14.8 18.9332 15.3333 19.4665 15.3333 20.2665V21.5998C15.3333 22.3998 14.8 22.9332 14 22.9332Z" fill="white"/>
</svg>
