<?xml version="1.0" encoding="utf-8"?><svg xmlns="http://www.w3.org/2000/svg" width="24" height="24" viewBox="0 0 24 24"><path fill-rule="evenodd" fill="currentColor" d="M19 7.17a3.001 3.001 0 010 5.66V19a1 1 0 01-2 0v-6.17a3.001 3.001 0 010-5.66V5a1 1 0 012 0v2.17zM15 15a3.001 3.001 0 01-2 2.83V19a1 1 0 01-2 0v-1.17a3.001 3.001 0 010-5.66V5a1 1 0 012 0v7.17c1.165.413 2 1.524 2 2.83zM7 7.17a3.001 3.001 0 010 5.66V19a1 1 0 01-2 0v-6.17a3.001 3.001 0 010-5.66V5a1 1 0 112 0v2.17zM6 11a1 1 0 100-2 1 1 0 000 2zm12 0a1 1 0 100-2 1 1 0 000 2zm-6 5a1 1 0 100-2 1 1 0 000 2z"/></svg>