<?xml version="1.0" encoding="utf-8"?><svg width="102" height="67" fill="none" xmlns="http://www.w3.org/2000/svg" viewBox="0 0 102 67"><path d="M31.544 0H0v2.119c3.206.9 5.947 4.612 6.916 6.355l28.958 58.46h2.457l7.886-27.012c-4.999-9.6-15.139-29.753-16.225-32.507-1.085-2.754.625-4.679 1.552-5.429V0zM61.86 0h-9.567v1.92c2.12 1.324 2.78 3.774 2.844 4.833h1.487c1.5-2.648 4.115-4.325 5.235-4.833V0zM102 .132H75.433V2.12c1.336 1.103 4.008 3.442 4.008 5.495 0 1.748.086 35.155.065 51.64-.043 1.148-.918 3.959-4.073 6.025V67H102v-1.721c-3.154-2.066-4.03-4.877-4.072-6.025-.022-16.485.064-49.892.064-51.64 0-2.053 2.672-4.392 4.008-5.495V.132z" fill="#DAC5B1"/></svg>