<?xml version="1.0" encoding="utf-8"?><svg viewBox="0 0 32 32" xmlns="http://www.w3.org/2000/svg" xmlns:xlink="http://www.w3.org/1999/xlink"><style>:root>svg{display:none}:root>svg:target{display:block}</style><svg fill="none" viewBox="0 0 24 24" id="burger" xmlns="http://www.w3.org/2000/svg"><path stroke="currentColor" d="M0 7.5h24M0 15.5h24"/></svg><svg fill="none" viewBox="0 0 24 24" id="close" xmlns="http://www.w3.org/2000/svg"><path d="M5.589 5l6.777 7.366m0 0l6.776 6.776m-6.776-6.776L19 5m-6.634 7.366l-6.777 6.776" stroke="currentColor"/></svg><svg fill="none" viewBox="0 0 24 24" id="handset" xmlns="http://www.w3.org/2000/svg"><path d="M14.15 6.44a4.311 4.311 0 013.403 3.398M14.15 3a7.762 7.762 0 014.624 2.216A7.735 7.735 0 0121 9.83m-1.006 10.14a1.72 1.72 0 01-1.734 1.024 17.075 17.075 0 01-7.437-2.64 16.79 16.79 0 01-5.17-5.161 17 17 0 01-2.646-7.457 1.717 1.717 0 011.02-1.728c.219-.097.456-.147.695-.147h2.072c.598 0 1.17 0 1.654.416.317.272.524.65.583 1.063.109.826.311 1.637.603 2.417a1.717 1.717 0 01-.388 1.815l-1.094 1.092a13.775 13.775 0 005.17 5.16l1.094-1.091a1.724 1.724 0 011.819-.387 11.067 11.067 0 002.421.602c.419.059.801.269 1.074.59.393.463.413 1.514.408 2.514-.003.762.041 1.495-.144 1.918z" stroke="currentColor" stroke-linecap="round" stroke-linejoin="round"/></svg><svg fill="none" viewBox="0 0 28 28" id="invalid_field" xmlns="http://www.w3.org/2000/svg"><path d="M14 .667C6.667.667.667 6.667.667 14s6 13.333 13.333 13.333 13.333-6 13.333-13.333S21.333.667 14 .667z" fill="#9A2323"/><path d="M14 16.666c-.8 0-1.333-.533-1.333-1.333V6.4c0-.8.533-1.334 1.333-1.334.8 0 1.333.534 1.333 1.334v8.933c0 .667-.533 1.333-1.333 1.333zM14 22.933c-.8 0-1.333-.533-1.333-1.333v-1.334c0-.8.533-1.333 1.333-1.333.8 0 1.333.534 1.333 1.334V21.6c0 .8-.533 1.333-1.333 1.333z" fill="#fff"/></svg><svg fill="none" viewBox="0 0 32 32" id="pause" xmlns="http://www.w3.org/2000/svg"><path d="M13 6v20M19 6v20" stroke="#563F3B" stroke-width="3"/></svg><svg fill="none" viewBox="0 0 32 32" id="play" xmlns="http://www.w3.org/2000/svg"><path d="M26.667 16l-16 9.238V6.762l16 9.238z" fill="currentColor"/></svg><svg fill="none" viewBox="0 0 27 27" id="plus" xmlns="http://www.w3.org/2000/svg"><path d="M13.5 0v27M0 13.5h27" stroke="currentColor"/></svg><svg fill="none" viewBox="0 0 30 21" id="quotes" xmlns="http://www.w3.org/2000/svg"><path d="M.941 14.5C.941 6.688 4.785.86 12.473.86v1.984c-3.348 0-5.332 1.488-5.704 5.828 3.224 0 5.828 2.604 5.704 5.828a5.821 5.821 0 01-5.828 5.828c-3.224 0-5.828-2.604-5.704-5.828zM29.957 2.844c-3.348 0-5.332 1.488-5.704 5.828 3.224 0 5.704 2.604 5.704 5.828a5.821 5.821 0 01-5.828 5.828 5.821 5.821 0 01-5.828-5.828c0-7.812 3.844-13.64 11.656-13.64v1.984z" fill="currentColor"/></svg><svg fill="none" viewBox="0 0 16 16" id="scroll" xmlns="http://www.w3.org/2000/svg"><path d="M8 3.2v4.266" stroke="#fff"/><rect x="3.166" y=".5" width="9.667" height="15" rx="4.5" stroke="currentColor"/></svg><svg fill="none" viewBox="0 0 31 13" id="slider_arrow" xmlns="http://www.w3.org/2000/svg"><path d="M24.373 1L30 6.5m0 0L24.373 12M30 6.5H0" stroke="currentColor"/></svg></svg>